# Blender v2.79 (sub 0) OBJ File: ''
# www.blender.org
mtllib Rock.mtl
o Cube
v 0.000000 -1.000000 -0.000000
v -0.000000 1.000000 0.000000
v 0.989717 -0.002050 0.002397
v -0.000000 -0.000559 0.999155
v -0.920949 -0.036531 0.009477
v 0.021379 0.008049 -0.809497
v 0.591077 -0.611258 0.005693
v 0.004604 -0.746225 -0.711132
v 0.609943 -0.001300 -0.621570
v 0.001728 -0.748383 0.746012
v 0.743943 -0.003839 0.746146
v -0.750000 -0.750000 -0.000000
v -0.746392 0.003343 0.741697
v -0.696725 -0.010657 -0.646417
v 0.699847 0.715636 -0.014466
v 0.019803 0.731638 -0.732650
v -0.003036 0.667115 0.637891
v -0.525865 0.549106 0.081578
v 0.549878 -0.550494 -0.554986
v 0.555005 -0.555030 0.555564
v -0.555556 -0.555556 0.555555
v -0.555163 -0.555303 -0.554015
v 0.554160 0.555537 -0.554140
v 0.530191 0.528624 0.532768
v -0.528548 0.536541 0.556908
v -0.422998 0.426757 -0.489612
vn 0.4708 -0.8532 -0.2246
vn 0.4702 -0.8558 0.2158
vn -0.3459 -0.8704 0.3504
vn -0.3361 -0.8698 -0.3613
vn 0.3682 0.8695 -0.3292
vn -0.6470 0.7115 -0.2741
vn -0.4672 0.8451 0.2598
vn 0.3306 0.8456 0.4191
vn 0.8712 -0.3648 -0.3285
vn 0.8684 0.2525 -0.4267
vn 0.8517 0.4045 0.3332
vn 0.8590 -0.4683 0.2069
vn 0.3485 -0.3476 0.8705
vn 0.2869 0.4554 0.8428
vn -0.2716 0.4382 0.8568
vn -0.3511 -0.3444 0.8707
vn -0.8998 -0.3040 0.3131
vn -0.8667 0.4861 0.1124
vn -0.7828 0.5684 -0.2533
vn -0.9008 -0.2473 -0.3571
vn 0.3259 0.1203 -0.9377
vn 0.3082 -0.1373 -0.9414
vn -0.2606 -0.1647 -0.9513
vn -0.3838 0.2678 -0.8837
usemtl Material
s off
f 1//1 8//1 19//1 7//1
f 1//2 7//2 20//2 10//2
f 1//3 10//3 21//3 12//3
f 1//4 12//4 22//4 8//4
f 2//5 15//5 23//5 16//5
f 2//6 16//6 26//6 18//6
f 2//7 18//7 25//7 17//7
f 2//8 17//8 24//8 15//8
f 3//9 7//9 19//9 9//9
f 3//10 9//10 23//10 15//10
f 3//11 15//11 24//11 11//11
f 3//12 11//12 20//12 7//12
f 4//13 10//13 20//13 11//13
f 4//14 11//14 24//14 17//14
f 4//15 17//15 25//15 13//15
f 4//16 13//16 21//16 10//16
f 5//17 12//17 21//17 13//17
f 5//18 13//18 25//18 18//18
f 5//19 18//19 26//19 14//19
f 5//20 14//20 22//20 12//20
f 6//21 16//21 23//21 9//21
f 6//22 9//22 19//22 8//22
f 6//23 8//23 22//23 14//23
f 6//24 14//24 26//24 16//24
